<?xml version="1.0" encoding="utf-8"?>
<!-- Generator: Adobe Illustrator 24.1.2, SVG Export Plug-In . SVG Version: 6.00 Build 0)  -->
<svg version="1.1" id="Layer_2" xmlns="http://www.w3.org/2000/svg" xmlns:xlink="http://www.w3.org/1999/xlink" x="0px" y="0px"
	 viewBox="0 0 1920 1591.35" style="enable-background:new 0 0 1920 1591.35;" xml:space="preserve">
<style type="text/css">
	.st0{fill:none;stroke:#000000;stroke-width:2;stroke-miterlimit:10;}
</style>
<path class="st0" d="M204.92,1354.59c0,0,38.57-57.31,68.33-57.31c0,0,29.51-3.31,61.59,33.18c0,0,36.24,45.8,51.43,69.8
	c0,0,29.88,43.59,61.71,13.22c0,0,62.2-57.8,110.2-68.08c0,0,68.57-29.88,130.29-1.47c0,0,47.02,23.02,5.88,37.71
	c0,0-41.63,1.47-25.96-69.55c0,0,32.33-41.63,35.27-66.12c0,0,4.9-21.55,12.24-39.18c0,0,20.08-25.96,38.69-17.14
	s13.22,39.67,13.22,39.67s-4.41,35.76-17.14,56.82l-14.2,40.65c0,0-8.33,24.98-6.86,33.31c0,0,4.9-29.88,42.61-69.55l35.27-31.35
	l2.94-37.22c0,0-10.29-19.59-31.35-26.94c0,0,39.67-17.14,48.98-37.22c0,0,25.96-67.59,72.49-62.2c0,0,40.65,47.02,89.63,33.31
	c0,0,49.47-90.61,87.18-102.86c0,0,59.76-28.9,70.53-72.49c0,0-34.29,42.61-170.45,26.94c0,0-24.98-0.49-26.45,27.92l-1.96,41.14
	c0,0-6.37,33.31-38.69,32.33c0,0-41.63,2.45-47.51-5.39l19.59-18.12c0,0,55.35-57.31,64.65-79.84l27.43-48.49l31.84-61.71
	l47.02-78.37c0,0,15.18,43.1,58.78,41.14c0,0,56.82,0,93.55-25.47c0,0,64.65-34.78,78.37-52.41c0,0,32.33-30.86,13.22-46.53
	c0,0-36.24,48-62.69,55.84c0,0-49.96,29.39-99.43,27.92c0,0,71.51-23.02,96.98-47.02c0,0,39.67-24,38.2-56.33
	c0,0-7.35-28.41-1.96-37.71c0,0,10.78-12.24,2.94-49.96c0,0-46.04-113.63-58.29-124.41c0,0-16.16-19.1-12.24,3.43
	c0,0,1.47,33.31-0.49,40.16c0,0-7.84,22.04-13.22-17.14l-5.88-112.65l-13.22-146.94l-7.59-24.24c0,0-6.86-13.47-15.67-15.67
	l-100.41-60l-90.12-40.9c0,0-33.55-40.9-92.57-34.78c0,0-51.18-38.45-217.71-22.29c0,0-159.67,18.61-167.51,73.96
	s88.16,40.16,88.16,40.16s-29.88-29.39-47.51-24.49c-17.63,4.9-0.49,40.65-0.49,40.65l39.67,114.12l58.29,127.84l19.59,44.08
	l16.65-34.78l20.57,33.8l11.76-45.55l25.96,48.49l13.71-44.57l17.14,37.71l14.22-37.71l25.94,22.53l42.12-205.71
	c0,0-29.39,71.51-117.06,86.69c-87.67,15.18-123.43-93.06-123.43-93.06s-33.8-125.88,80.33-146.45s154.29,65.63,154.29,65.63
	s9.31,48.98-8.82,24.49c0,0-10.41-27.55-1.35-34.65c0,0,0.37-6.37,17.88-5.14c17.51,1.22,35.14-14.94,35.14-14.94
	s28.78-22.04,12.86-39.55c0,0-13.1-8.08-20.57,2.08c-7.47,10.16,11.63,20.57,11.63,20.57s16.29,0.73,19.71,4.16l20.08,23.14
	c0,0,13.96,11.63,24.49,8.45c10.53-3.18,21.06,4.41,21.06,4.41l58.9,30.24c0,0,27.67,13.47,54.37,41.39c0,0,22.29,33.8,47.76,34.53
	c0,0-9.55,20.08-9.8,42.61c0,0-5.14,21.8,11.51,31.1c0,0,15.43,16.41,24.73,33.06c0,0,9.06,22.78,20.33,22.04
	c11.27-0.73-15.18-31.35-15.18-31.35s-16.65-16.41-40.16-16.9c0,0-15.43,0-16.16,13.47c0,0-6.37,22.04-17.39,27.67
	c0,0-45.55,41.63-42.37,69.06c3.18,27.43,4.16-91.84-32.82-105.31c0,0-43.71-22.9-55.47-60.37c0,0-10.65-34.9-60.98-67.22
	l-49.96-33.8c0,0,5.48,12.78-0.73,46.65c0,0,40.41,60.98,49.22,82.29c0,0,44.08-4.04,73.84,22.41c0.73,1.84,25.35,25.35,30.49,30.12
	c0,0,29.39,29.02,33.8,57.67c4.41,28.65,6.24,34.16,6.24,34.16s3.67,14.69-15.43,28.65c0,0-59.14,39.31-78.61,31.96
	c0,0-13.22-3.31-4.04-27.92c0,0,7.35-17.27-11.76-14.33c0,0-61.35-15.06-52.16-95.14c0,0,15.43-76.41,73.1-70.53
	c0,0,81.92,8.45,66.49,91.1c0,0-14.69,53.63-56.57,65.76c0,0-28.29,8.08-29.39,18.37l-0.37,36c0,0-0.73,44.45,30.12,69.43
	c0,0,31.96,39.67,57.67,44.45c0,0,51.06,28.65,78.61,75.67c0,0,37.84,63.55,4.78,27.18c0,0-54.73-42.98-59.14-70.53
	c0,0,1.47,63.55,26.45,87.43c0,0,20.2,22.41,28.65,29.39c0,0,21.31,15.8,26.45,45.18c0,0,1.84,26.82,42.61,32.33
	c0,0,75.31,4.78,105.8-15.06c0,0,58.75-28.23,55.1-70.9c0,0-1.1,50.69,17.63,81.55c0,0,18,37.84,21.31,72s13.96,120.12,14.69,123.8
	s9.55,119.39,9.55,119.39s-100.65-19.84-128.57,6.98c0,0-19.1-20.57-0.37-42.98c0,0-49.59-66.86-52.53-110.57l-4.41-37.84
	c0,0,25.71,28.65,31.96,44.08c0,0,49.22,93.67,47.76,130.78l-0.73,22.41c0,0-36,34.53-41.51,72.37c0,0-15.43,39.67-19.47,74.94
	c0,0-15.8,38.57-23.14,46.65c0,0-20.94,15.8,5.88,17.27c0,0,36,8.08,10.29,37.84l-7.71,8.08c0,0-1.1-62.08-25.35-54.73
	c0,0-31.59,2.2-44.45,25.35c0,0-4.78,13.59-2.94,25.35c0,0-3.31,43.71-13.22,58.41c0,0-19.84,32.33-12.12,48.49
	c0,0,4.78,30.86,28.29,39.67c1.84,1.84,21.31,15.8,31.96-35.27c0,0,20.94-65.39,36-85.59c0,0,75.67-106.53,80.45-118.29l70.9-116.82
	c0,0,19.84-45.92,29.76-41.51c9.92,4.41,17.63,56.57,17.63,56.57s9.18,65.39,33.06,69.43c23.88,4.04,78.98-55.1,78.98-55.1
	s156.12-148.41,204.61-137.02c48.49,11.39,48.12,76.78,48.12,76.78"/>
</svg>
